<svg width="149" height="17" viewBox="0 0 149 17" fill="none" xmlns="http://www.w3.org/2000/svg">
<path d="M1.68 3.84C1.56 3.41333 1.38667 3.13333 1.16 3C0.946667 2.85333 0.646667 2.78 0.26 2.78H0V1.72H6.68V2.78H6.22C5.42 2.78 5.02 3.1 5.02 3.74C5.02 3.84667 5.04 4.00667 5.08 4.22C5.12 4.43333 5.16667 4.63333 5.22 4.82L6.56 9.44C6.66667 9.77333 6.77333 10.1467 6.88 10.56C6.98667 10.96 7.08 11.36 7.16 11.76C7.25333 12.1467 7.31333 12.4867 7.34 12.78C7.43333 12.3533 7.53333 11.9533 7.64 11.58C7.74667 11.1933 7.86 10.8067 7.98 10.42L10.62 1.86H12.08L14.84 9.5C15.0667 10.1267 15.2667 10.7533 15.44 11.38C15.6267 11.9933 15.7533 12.4733 15.82 12.82C15.9267 12.34 16.0467 11.7667 16.18 11.1C16.3133 10.42 16.46 9.76 16.62 9.12L17.68 4.8C17.72 4.64 17.76 4.44667 17.8 4.22C17.84 3.99333 17.86 3.82667 17.86 3.72C17.86 3.37333 17.7533 3.13333 17.54 3C17.34 2.85333 17.02 2.78 16.58 2.78H16.12V1.72H21.34V2.78H20.96C20.5733 2.78 20.2667 2.87333 20.04 3.06C19.8267 3.24667 19.6267 3.67333 19.44 4.34L16.34 16H14.06L10.7 6.62L7.82 16H5.34L1.68 3.84ZM21.7477 16V14.94H21.7877C22.241 14.94 22.6143 14.86 22.9077 14.7C23.2143 14.54 23.3677 14.16 23.3677 13.56L23.3477 3.08C23.3477 2.72 23.2677 2.45333 23.1077 2.28C22.9477 2.10667 22.7543 1.99333 22.5277 1.94C22.3143 1.88667 22.1143 1.86 21.9277 1.86H21.6877V0.799999H26.3877V4.1C26.3877 4.44667 26.3743 4.82 26.3477 5.22C26.321 5.60667 26.2943 5.94 26.2677 6.22C26.241 6.5 26.2277 6.64 26.2277 6.64H26.4077C26.6743 6.13333 26.961 5.76667 27.2677 5.54C27.5877 5.31333 27.9277 5.17333 28.2877 5.12C28.661 5.05333 29.0543 5.02 29.4677 5.02C30.4943 5.02 31.301 5.32667 31.8877 5.94C32.4743 6.55333 32.7677 7.53333 32.7677 8.88V13.52C32.7677 14.1333 32.8743 14.5267 33.0877 14.7C33.3143 14.86 33.6543 14.94 34.1077 14.94H34.1677V16H29.7277V9.42C29.7277 8.55333 29.6077 7.88667 29.3677 7.42C29.1277 6.95333 28.7143 6.72 28.1277 6.72C27.6877 6.72 27.341 6.86667 27.0877 7.16C26.8343 7.44 26.6543 7.82 26.5477 8.3C26.441 8.76667 26.3877 9.27333 26.3877 9.82L26.4077 13.64C26.4077 14.2 26.5343 14.56 26.7877 14.72C27.041 14.8667 27.3877 14.94 27.8277 14.94H27.8877V16H21.7477ZM38.7275 16.2C37.8475 16.2 37.1008 15.9333 36.4875 15.4C35.8875 14.8667 35.5875 14.0467 35.5875 12.94C35.5875 11.86 35.9608 11.06 36.7075 10.54C37.4542 10.02 38.5742 9.73333 40.0675 9.68L41.7075 9.62V8.52C41.7075 7.85333 41.6342 7.30667 41.4875 6.88C41.3542 6.45333 41.0142 6.24 40.4675 6.24C39.9608 6.24 39.6075 6.44667 39.4075 6.86C39.2208 7.26 39.1275 7.77333 39.1275 8.4C38.2342 8.4 37.5608 8.3 37.1075 8.1C36.6542 7.9 36.4275 7.55333 36.4275 7.06C36.4275 6.56667 36.6142 6.17333 36.9875 5.88C37.3608 5.58667 37.8608 5.37333 38.4875 5.24C39.1142 5.09333 39.8008 5.02 40.5475 5.02C41.9475 5.02 42.9942 5.27333 43.6875 5.78C44.3942 6.28667 44.7475 7.16667 44.7475 8.42V13.52C44.7475 14.0667 44.8342 14.44 45.0075 14.64C45.1808 14.84 45.4942 14.94 45.9475 14.94H46.0275V16H42.3075L41.8875 14.62H41.7075C41.4142 14.98 41.1342 15.28 40.8675 15.52C40.6142 15.7467 40.3208 15.9133 39.9875 16.02C39.6542 16.14 39.2342 16.2 38.7275 16.2ZM39.8275 14.74C40.4008 14.74 40.8542 14.5067 41.1875 14.04C41.5342 13.5733 41.7075 12.9533 41.7075 12.18V10.68L40.8075 10.74C40.0075 10.78 39.4542 10.9933 39.1475 11.38C38.8408 11.7533 38.6875 12.3 38.6875 13.02C38.6875 14.1667 39.0675 14.74 39.8275 14.74ZM51.5202 16.2C50.6268 16.2 49.9135 15.9667 49.3802 15.5C48.8468 15.0333 48.5802 14.2133 48.5802 13.04V6.64H47.0802V5.62C47.5068 5.62 47.8868 5.53333 48.2202 5.36C48.5668 5.18667 48.8402 4.99333 49.0402 4.78C49.4535 4.34 49.7602 3.68 49.9602 2.8H51.6202V5.28H54.1802V6.64H51.6202V12.84C51.6202 13.44 51.7202 13.88 51.9202 14.16C52.1335 14.44 52.4735 14.58 52.9402 14.58C53.2068 14.58 53.4535 14.5667 53.6802 14.54C53.9202 14.5 54.1468 14.4533 54.3602 14.4V15.7C54.1468 15.7933 53.7935 15.9 53.3002 16.02C52.8202 16.14 52.2268 16.2 51.5202 16.2ZM55.6656 6.8C56.2523 6.58667 56.6923 6.37333 56.9856 6.16C57.279 5.93333 57.4256 5.62667 57.4256 5.24C57.4256 5.05333 57.3523 4.91333 57.2056 4.82C57.059 4.71333 56.8856 4.60667 56.6856 4.5C56.499 4.38 56.3323 4.22 56.1856 4.02C56.039 3.80667 55.9656 3.5 55.9656 3.1C55.9656 2.64667 56.099 2.30667 56.3656 2.08C56.6456 1.84 56.9923 1.72 57.4056 1.72C57.9656 1.72 58.4123 1.92 58.7456 2.32C59.079 2.70667 59.2456 3.24 59.2456 3.92C59.2456 4.77333 58.9723 5.55333 58.4256 6.26C57.8923 6.96667 56.9723 7.49333 55.6656 7.84V6.8ZM63.995 16.2C62.5417 16.2 61.5083 15.98 60.895 15.54C60.2817 15.0867 59.975 14.5267 59.975 13.86C59.975 13.42 60.0817 13.0933 60.295 12.88C60.5083 12.6667 60.7617 12.5267 61.055 12.46C61.3483 12.38 61.6083 12.34 61.835 12.34C61.835 13.1667 62.0283 13.82 62.415 14.3C62.815 14.78 63.3417 15.02 63.995 15.02C64.6883 15.02 65.1883 14.8867 65.495 14.62C65.815 14.3533 65.975 14.0333 65.975 13.66C65.975 13.22 65.8017 12.86 65.455 12.58C65.1083 12.3 64.4617 11.9933 63.515 11.66C62.435 11.2867 61.6083 10.8467 61.035 10.34C60.4617 9.82 60.175 9.11333 60.175 8.22C60.175 7.15333 60.5683 6.36 61.355 5.84C62.1417 5.30667 63.1817 5.04 64.475 5.04C65.315 5.04 65.9883 5.13333 66.495 5.32C67.015 5.49333 67.3883 5.72667 67.615 6.02C67.855 6.3 67.975 6.59333 67.975 6.9C67.975 7.35333 67.815 7.7 67.495 7.94C67.1883 8.16667 66.6683 8.28 65.935 8.28C65.935 7.61333 65.7883 7.1 65.495 6.74C65.2017 6.36667 64.7617 6.18 64.175 6.18C63.7483 6.18 63.3683 6.28667 63.035 6.5C62.715 6.7 62.555 7.00667 62.555 7.42C62.555 7.7 62.6283 7.94667 62.775 8.16C62.935 8.37333 63.215 8.58 63.615 8.78C64.015 8.98 64.575 9.20667 65.295 9.46C66.1883 9.76667 66.915 10.1733 67.475 10.68C68.0483 11.1733 68.335 11.84 68.335 12.68C68.335 13.7867 67.955 14.6533 67.195 15.28C66.4483 15.8933 65.3817 16.2 63.995 16.2Z" fill="black"/>
<path d="M82.6959 16.2C81.0826 16.2 79.7359 15.8933 78.6559 15.28C77.5759 14.6667 76.7626 13.8133 76.2159 12.72C75.6826 11.6133 75.4159 10.32 75.4159 8.84C75.4159 7.4 75.6893 6.13333 76.2359 5.04C76.7826 3.93333 77.5959 3.07333 78.6759 2.46C79.7559 1.83333 81.0893 1.52 82.6759 1.52C84.3293 1.52 85.5626 1.75333 86.3759 2.22C87.2026 2.67333 87.6159 3.23333 87.6159 3.9C87.6159 4.44667 87.3626 4.91333 86.8559 5.3C86.3626 5.68667 85.5959 5.88 84.5559 5.88C84.5559 5.42667 84.4893 4.98 84.3559 4.54C84.2359 4.08667 84.0226 3.71333 83.7159 3.42C83.4093 3.11333 82.9893 2.96 82.4559 2.96C81.3626 2.96 80.6159 3.47333 80.2159 4.5C79.8159 5.51333 79.6159 6.96 79.6159 8.84C79.6159 10.1867 79.7359 11.2733 79.9759 12.1C80.2159 12.9133 80.6093 13.5 81.1559 13.86C81.7159 14.22 82.4559 14.4 83.3759 14.4C84.0959 14.4 84.7026 14.2933 85.1959 14.08C85.7026 13.8533 86.1293 13.58 86.4759 13.26C86.8226 12.94 87.1093 12.6333 87.3359 12.34C87.4293 12.4333 87.5026 12.5733 87.5559 12.76C87.6093 12.9467 87.6359 13.1133 87.6359 13.26C87.6359 13.5667 87.5626 13.8933 87.4159 14.24C87.2826 14.5733 87.0359 14.8933 86.6759 15.2C86.3159 15.4933 85.8093 15.7333 85.1559 15.92C84.5159 16.1067 83.6959 16.2 82.6959 16.2ZM94.8561 16.2C93.1361 16.2 91.7828 15.7333 90.7961 14.8C89.8094 13.8667 89.3161 12.46 89.3161 10.58C89.3161 8.7 89.7894 7.3 90.7361 6.38C91.6828 5.44667 93.0761 4.98 94.9161 4.98C96.6361 4.98 97.9894 5.44667 98.9761 6.38C99.9628 7.3 100.456 8.7 100.456 10.58C100.456 12.46 99.9828 13.8667 99.0361 14.8C98.0894 15.7333 96.6961 16.2 94.8561 16.2ZM94.8961 14.78C95.4961 14.78 95.9161 14.4267 96.1561 13.72C96.3961 13 96.5161 11.9533 96.5161 10.58C96.5161 9.19333 96.3894 8.15333 96.1361 7.46C95.8961 6.76667 95.4761 6.42 94.8761 6.42C94.2761 6.42 93.8561 6.76667 93.6161 7.46C93.3894 8.15333 93.2761 9.19333 93.2761 10.58C93.2761 11.9533 93.3961 13 93.6361 13.72C93.8761 14.4267 94.2961 14.78 94.8961 14.78ZM107.649 16.2C105.929 16.2 104.576 15.7333 103.589 14.8C102.602 13.8667 102.109 12.46 102.109 10.58C102.109 8.7 102.582 7.3 103.529 6.38C104.476 5.44667 105.869 4.98 107.709 4.98C109.429 4.98 110.782 5.44667 111.769 6.38C112.756 7.3 113.249 8.7 113.249 10.58C113.249 12.46 112.776 13.8667 111.829 14.8C110.882 15.7333 109.489 16.2 107.649 16.2ZM107.689 14.78C108.289 14.78 108.709 14.4267 108.949 13.72C109.189 13 109.309 11.9533 109.309 10.58C109.309 9.19333 109.182 8.15333 108.929 7.46C108.689 6.76667 108.269 6.42 107.669 6.42C107.069 6.42 106.649 6.76667 106.409 7.46C106.182 8.15333 106.069 9.19333 106.069 10.58C106.069 11.9533 106.189 13 106.429 13.72C106.669 14.4267 107.089 14.78 107.689 14.78ZM114.402 16V14.78H114.702C114.822 14.78 114.982 14.7533 115.182 14.7C115.382 14.6467 115.562 14.5333 115.722 14.36C115.882 14.1867 115.962 13.9267 115.962 13.58V3.14C115.962 2.80667 115.875 2.56667 115.702 2.42C115.542 2.26 115.362 2.15333 115.162 2.1C114.962 2.04667 114.809 2.02 114.702 2.02H114.402V0.799999H119.862V8.42C119.862 8.75333 119.849 9.1 119.822 9.46C119.795 9.82 119.769 10.0933 119.742 10.28L122.282 7.4C122.349 7.32 122.382 7.24667 122.382 7.18C122.395 7.11333 122.402 7.06667 122.402 7.04C122.402 6.86667 122.302 6.72 122.102 6.6C121.915 6.46667 121.655 6.4 121.322 6.4V5.28H126.822V6.4C126.369 6.4 125.915 6.52 125.462 6.76C125.009 6.98667 124.522 7.39333 124.002 7.98L123.022 9.12L125.682 13.08C126.055 13.64 126.382 14.0667 126.662 14.36C126.942 14.64 127.209 14.78 127.462 14.78H127.542V16H127.262C126.422 16 125.715 15.9733 125.142 15.92C124.569 15.8533 124.082 15.74 123.682 15.58C123.295 15.42 122.955 15.2067 122.662 14.94C122.382 14.66 122.109 14.3 121.842 13.86L120.402 11.5L119.862 12.02V13.5C119.862 13.8733 119.942 14.1533 120.102 14.34C120.262 14.5133 120.442 14.6333 120.642 14.7C120.842 14.7533 120.995 14.78 121.102 14.78H121.482V16H114.402ZM131.139 3.62C130.539 3.62 130.032 3.48667 129.619 3.22C129.219 2.94 129.019 2.54667 129.019 2.04C129.019 1.49333 129.219 1.09333 129.619 0.84C130.032 0.586666 130.539 0.46 131.139 0.46C131.712 0.46 132.212 0.586666 132.639 0.84C133.065 1.09333 133.279 1.49333 133.279 2.04C133.279 2.54667 133.065 2.94 132.639 3.22C132.212 3.48667 131.712 3.62 131.139 3.62ZM127.799 16V14.78H128.039C128.425 14.78 128.732 14.6733 128.959 14.46C129.185 14.2467 129.299 13.86 129.299 13.3V7.82C129.299 7.32667 129.179 6.98667 128.939 6.8C128.699 6.6 128.399 6.5 128.039 6.5H127.659V5.28H133.179V13.38C133.179 13.9133 133.292 14.28 133.519 14.48C133.759 14.68 134.065 14.78 134.439 14.78H134.659V16H127.799ZM135.358 16V14.78H135.438C135.891 14.78 136.231 14.7 136.458 14.54C136.698 14.38 136.818 14.0133 136.818 13.44V7.76C136.818 7.21333 136.711 6.86667 136.498 6.72C136.298 6.57333 135.978 6.5 135.538 6.5H135.458V5.28H140.378L140.638 6.56H140.738C140.991 6.14667 141.338 5.78 141.778 5.46C142.218 5.14 142.878 4.98 143.758 4.98C144.825 4.98 145.631 5.28 146.178 5.88C146.725 6.48 146.998 7.45333 146.998 8.8V13.38C146.998 13.9933 147.078 14.38 147.238 14.54C147.411 14.7 147.725 14.78 148.178 14.78H148.258V16H143.118V9.66C143.118 8.80667 143.045 8.14667 142.898 7.68C142.751 7.21333 142.465 6.98 142.038 6.98C141.705 6.98 141.438 7.12 141.238 7.4C141.051 7.68 140.918 8.04667 140.838 8.5C140.758 8.95333 140.718 9.44667 140.718 9.98V13.5C140.718 14.0333 140.818 14.38 141.018 14.54C141.218 14.7 141.538 14.78 141.978 14.78H142.058V16H135.358Z" fill="#FFB800"/>
</svg>
