<svg width="58" height="58" viewBox="0 0 58 58" fill="none" xmlns="http://www.w3.org/2000/svg">
<g opacity="0.5">
<path d="M29.0007 29.0001C32.6825 29.0001 35.6673 26.0153 35.6673 22.3334C35.6673 18.6515 32.6825 15.6667 29.0007 15.6667C25.3188 15.6667 22.334 18.6515 22.334 22.3334C22.334 26.0153 25.3188 29.0001 29.0007 29.0001Z" stroke="black" stroke-width="2"/>
<path d="M35.6671 31.6667H36.1364C37.1112 31.667 38.0523 32.0232 38.783 32.6685C39.5136 33.3137 39.9835 34.2035 40.1044 35.1707L40.6257 39.3361C40.6726 39.7113 40.6392 40.0922 40.5276 40.4536C40.416 40.8149 40.2289 41.1483 39.9786 41.4318C39.7283 41.7153 39.4205 41.9423 39.0758 42.0977C38.7311 42.2532 38.3572 42.3335 37.9791 42.3334H20.0217C19.6436 42.3335 19.2697 42.2532 18.925 42.0977C18.5803 41.9423 18.2725 41.7153 18.0222 41.4318C17.7719 41.1483 17.5848 40.8149 17.4732 40.4536C17.3616 40.0922 17.3282 39.7113 17.3751 39.3361L17.8951 35.1707C18.016 34.203 18.4863 33.3129 19.2175 32.6676C19.9487 32.0223 20.8905 31.6664 21.8657 31.6667H22.3337" stroke="black" stroke-width="2" stroke-linecap="round" stroke-linejoin="round"/>
</g>
</svg>
